<svg xmlns="http://www.w3.org/2000/svg" viewBox="0 0 210 224"><defs><style>.cls-1{fill:#0099ef;fill-opacity:0.94;}.cls-2{fill:#22313f;}.cls-3{fill:#e7ecf1;}</style></defs><g id="Layer_2" data-name="Layer 2"><g id="Layer_1-2" data-name="Layer 1"><g id="g929"><path id="path934-4" class="cls-1" d="M83.19,195.5q4.86-14.25,9.07-30t7.82-31.11q3.6-15.37,6.48-29.63t5-25.55q2.09-11.3,3.37-18.87c.86-5,1.42-8.26,1.7-9.63,2.39,1,5.33,2.27,8.79,3.86s7,3.24,10.51,5,6.84,3.4,9.91,5,5.45,3,7.16,4.09a243.75,243.75,0,0,1-5.73,25.1q-3.86,13.83-8.84,28.69t-10.61,29.89q-5.62,15-11.07,28.56t-10.13,24.7q-4.7,11.16-7.72,18.39-2.5-1.32-6.26-3.72t-7.67-4.82Q81,213,77.7,210.92Z"/><path id="XMLID_55_-9" data-name="XMLID 55 -9" class="cls-2" d="M56.94,195.5q4.86-14.25,9.08-30t7.81-31.11q3.6-15.37,6.48-29.63t5-25.55q2.09-11.3,3.37-18.87c.86-5,1.42-8.26,1.7-9.63q3.6,1.48,8.79,3.86t10.51,5c3.54,1.72,6.84,3.4,9.91,5s5.45,3,7.16,4.09A243.75,243.75,0,0,1,121,93.77q-3.85,13.83-8.84,28.69t-10.61,29.89q-5.62,15-11.07,28.56t-10.13,24.7q-4.7,11.16-7.72,18.39-2.5-1.32-6.26-3.72t-7.67-4.82q-3.91-2.43-7.24-4.54t-4.85-3Z"/><path id="XMLID_55_-9-9" data-name="XMLID 55 -9-9" class="cls-3" d="M18.71,73.66a194.44,194.44,0,0,1,14.78,25,243.4,243.4,0,0,1,10.26,23.93,212.92,212.92,0,0,1,6.7,21.74q2.5,10.25,3.94,18.58,1.35,7.86,1.94,13.93c.39,4,.61,7.44.68,10.17a66.63,66.63,0,0,1-.07,8.47l-5.49,15.42q-3.33-2.13-4.85-3c0-.95.13-2.59.29-4.93s.21-5.24.18-8.72-.25-7.5-.63-12.06-1-9.57-2-15q-1.61-9.36-4.49-20a145.36,145.36,0,0,0-7.9-21.7A150.35,150.35,0,0,0,19.34,103,150.86,150.86,0,0,0,.46,80.74l-.17-.08L0,80.11Z"/><path id="XMLID_55_-9-0" data-name="XMLID 55 -9-0" class="cls-2" d="M210,25.84q-7.27,1-14.71,2t-15.91,2.09q-8.48,1.14-18.62,2.69t-22.85,3.78q-16.25,2.85-31.33,6.14T76.87,50.16q-14.62,4.34-29,10C38.28,64,18.71,73.66,18.71,73.66L.46,80.74c-.1,0-.16,0-.17-.08S.1,80.42,0,80.11a7.7,7.7,0,0,1,.5-3.32,34.6,34.6,0,0,1,2-4.81c.86-1.76,1.82-3.53,2.88-5.33s2.09-3.36,3.07-4.71c.42-.54,2.59-2,6.53-4.49s9.42-5.52,16.45-9.18,15.45-7.72,25.27-12.19,20.8-8.93,32.91-13.37,25.25-8.64,39.42-12.62S158.14,2.75,173.79,0q1.19.74,3.84,2.44t6.08,4q3.43,2.27,7.31,4.94t7.52,5.26q3.63,2.6,6.63,5T210,25.84Z"/></g></g></g></svg>